NokyungTest-R.ufo
<glyph name="parenleft" format="1">
  <advance width="705"/>
  <unicode hex="0028"/>
  <outline>
    <contour>
      <point x="808" y="-615" type="curve" smooth="yes"/>
      <point x="785" y="-632"/>
      <point x="742" y="-628"/>
      <point x="681" y="-601" type="curve" smooth="yes"/>
      <point x="538" y="-540"/>
      <point x="420" y="-427"/>
      <point x="328" y="-264" type="curve" smooth="yes"/>
      <point x="217" y="-67"/>
      <point x="161" y="178"/>
      <point x="161" y="473" type="curve" smooth="yes"/>
      <point x="161" y="1011"/>
      <point x="334" y="1377"/>
      <point x="681" y="1571" type="curve" smooth="yes"/>
      <point x="742" y="1605"/>
      <point x="785" y="1615"/>
      <point x="808" y="1602" type="curve" smooth="yes"/>
      <point x="810" y="1601"/>
      <point x="811" y="1599"/>
      <point x="811" y="1597" type="curve" smooth="yes"/>
      <point x="811" y="1586"/>
      <point x="785" y="1567"/>
      <point x="734" y="1540" type="curve" smooth="yes"/>
      <point x="634" y="1488"/>
      <point x="543" y="1380"/>
      <point x="460" y="1215" type="curve" smooth="yes"/>
      <point x="355" y="1006"/>
      <point x="303" y="761"/>
      <point x="303" y="482" type="curve" smooth="yes"/>
      <point x="303" y="201"/>
      <point x="354" y="-43"/>
      <point x="457" y="-249" type="curve" smooth="yes"/>
      <point x="541" y="-417"/>
      <point x="633" y="-521"/>
      <point x="734" y="-560" type="curve" smooth="yes"/>
      <point x="785" y="-580"/>
      <point x="811" y="-596"/>
      <point x="811" y="-609" type="curve" smooth="yes"/>
      <point x="811" y="-612"/>
      <point x="810" y="-614"/>
    </contour>
  </outline>
</glyph>
<glyph name="uni1984" format="1">
  <advance width="1735"/>
  <unicode hex="1984"/>
  <outline>
    <component base="uni19A0"/>
    <component base="uni19A0"/>
    <contour>
      <point x="1179" y="-555" type="curve" smooth="yes"/>
      <point x="1169" y="-554"/>
      <point x="1160" y="-549"/>
      <point x="1160" y="-539" type="curve" smooth="yes"/>
      <point x="1160" y="-497" type="line" smooth="yes"/>
      <point x="1160" y="-489"/>
      <point x="1170" y="-477"/>
      <point x="1179" y="-480" type="curve" smooth="yes"/>
      <point x="1211" y="-490"/>
      <point x="1300" y="-487"/>
      <point x="1300" y="-430" type="curve" smooth="yes"/>
      <point x="1300" y="-398"/>
      <point x="1248" y="-375"/>
      <point x="1205" y="-375" type="curve" smooth="yes"/>
      <point x="1123" y="-375"/>
      <point x="1043" y="-487"/>
      <point x="921" y="-487" type="curve" smooth="yes"/>
      <point x="837" y="-487"/>
      <point x="770" y="-413"/>
      <point x="770" y="-343" type="curve" smooth="yes"/>
      <point x="770" y="-191"/>
      <point x="960" y="-105"/>
      <point x="1183" y="-105" type="curve" smooth="yes"/>
      <point x="1407" y="-105"/>
      <point x="1615" y="-223"/>
      <point x="1615" y="-435" type="curve" smooth="yes"/>
      <point x="1615" y="-603"/>
      <point x="1418" y="-740"/>
      <point x="1140" y="-740" type="curve" smooth="yes"/>
      <point x="889" y="-740"/>
      <point x="682" y="-597"/>
      <point x="610" y="-445" type="curve" smooth="yes"/>
      <point x="605" y="-435"/>
      <point x="608" y="-427"/>
      <point x="614" y="-421" type="curve" smooth="yes"/>
      <point x="642" y="-389" type="line"/>
      <point x="650" y="-382"/>
      <point x="659" y="-382"/>
      <point x="663" y="-390" type="curve" smooth="yes"/>
      <point x="735" y="-525"/>
      <point x="891" y="-645"/>
      <point x="1140" y="-645" type="curve" smooth="yes"/>
      <point x="1379" y="-645"/>
      <point x="1510" y="-547"/>
      <point x="1510" y="-435" type="curve" smooth="yes"/>
      <point x="1510" y="-293"/>
      <point x="1371" y="-200"/>
      <point x="1183" y="-200" type="curve" smooth="yes"/>
      <point x="1001" y="-200"/>
      <point x="870" y="-256"/>
      <point x="870" y="-344" type="curve" smooth="yes"/>
      <point x="870" y="-373"/>
      <point x="893" y="-403"/>
      <point x="921" y="-403" type="curve" smooth="yes"/>
      <point x="1007" y="-403"/>
      <point x="1097" y="-290"/>
      <point x="1205" y="-290" type="curve" smooth="yes"/>
      <point x="1298" y="-290"/>
      <point x="1385" y="-348"/>
      <point x="1385" y="-430" type="curve" smooth="yes"/>
      <point x="1385" y="-537"/>
      <point x="1266" y="-565"/>
    </contour>
  </outline>
</glyph>
<glyph name="uni1985" format="1">
  <advance width="1250"/>
  <unicode hex="1985"/>
  <outline>
    <contour>
      <point x="110" y="420" type="curve" smooth="yes"/>
      <point x="110" y="725"/>
      <point x="337" y="930"/>
      <point x="625" y="930" type="curve" smooth="yes"/>
      <point x="939" y="930"/>
      <point x="1140" y="736"/>
      <point x="1140" y="430" type="curve" smooth="yes"/>
      <point x="1140" y="209"/>
      <point x="1059" y="74"/>
      <point x="880" y="-17" type="curve" smooth="yes"/>
      <point x="876.245" y="-18.909"/>
      <point x="872" y="-20"/>
      <point x="868" y="-20" type="curve" smooth="yes"/>
      <point x="862" y="-20"/>
      <point x="857.044" y="-16.4799"/>
      <point x="854" y="-11" type="curve" smooth="yes"/>
      <point x="806" y="67" type="line" smooth="yes"/>
      <point x="801" y="75"/>
      <point x="805.407" y="88.8789"/>
      <point x="815" y="93" type="curve" smooth="yes"/>
      <point x="950" y="151"/>
      <point x="1015" y="247"/>
      <point x="1015" y="430" type="curve" smooth="yes"/>
      <point x="1015" y="627"/>
      <point x="877" y="805"/>
      <point x="625" y="805" type="curve" smooth="yes"/>
      <point x="376" y="805"/>
      <point x="235" y="622"/>
      <point x="235" y="420" type="curve" smooth="yes"/>
      <point x="235" y="269"/>
      <point x="308" y="171"/>
      <point x="415" y="90" type="curve" smooth="yes"/>
      <point x="425" y="83"/>
      <point x="428" y="71"/>
      <point x="421" y="60" type="curve"/>
      <point x="367" y="-9" type="line"/>
      <point x="360.8" y="-16.0599"/>
      <point x="355" y="-20"/>
      <point x="348" y="-20" type="curve" smooth="yes"/>
      <point x="344" y="-20"/>
      <point x="338.729" y="-17.9835"/>
      <point x="335" y="-15" type="curve" smooth="yes"/>
      <point x="188" y="92"/>
      <point x="110" y="223"/>
    </contour>
  </outline>
</glyph>
<glyph name="uni1986" format="1">
  <advance width="1250"/>
  <unicode hex="1986"/>
  <outline>
    <contour>
      <point x="110" y="420" type="curve" smooth="yes"/>
      <point x="110" y="725"/>
      <point x="337" y="930"/>
      <point x="625" y="930" type="curve" smooth="yes"/>
      <point x="939" y="930"/>
      <point x="1140" y="736"/>
      <point x="1140" y="430" type="curve" smooth="yes"/>
      <point x="1140" y="209"/>
      <point x="1059" y="74"/>
      <point x="880" y="-17" type="curve" smooth="yes"/>
      <point x="876.245" y="-18.909"/>
      <point x="872" y="-20"/>
      <point x="868" y="-20" type="curve" smooth="yes"/>
      <point x="862" y="-20"/>
      <point x="857.044" y="-16.4799"/>
      <point x="854" y="-11" type="curve" smooth="yes"/>
      <point x="806" y="67" type="line" smooth="yes"/>
      <point x="801" y="75"/>
      <point x="805.407" y="88.8789"/>
      <point x="815" y="93" type="curve" smooth="yes"/>
      <point x="950" y="151"/>
      <point x="1015" y="247"/>
      <point x="1015" y="430" type="curve" smooth="yes"/>
      <point x="1015" y="627"/>
      <point x="877" y="805"/>
      <point x="625" y="805" type="curve" smooth="yes"/>
      <point x="376" y="805"/>
      <point x="235" y="622"/>
      <point x="235" y="420" type="curve" smooth="yes"/>
      <point x="235" y="269"/>
      <point x="308" y="171"/>
      <point x="415" y="90" type="curve" smooth="yes"/>
      <point x="425" y="83"/>
      <point x="428" y="71"/>
      <point x="421" y="60" type="curve"/>
      <point x="367" y="-9" type="line"/>
      <point x="360.8" y="-16.0599"/>
      <point x="355" y="-20"/>
      <point x="348" y="-20" type="curve" smooth="yes"/>
      <point x="344" y="-20"/>
      <point x="338.729" y="-17.9835"/>
      <point x="335" y="-15" type="curve" smooth="yes"/>
      <point x="188" y="92"/>
      <point x="110" y="223"/>
    </contour>
    <contour>
      <point x="655" y="1555" type="curve" smooth="yes"/>
      <point x="358" y="1555"/>
      <point x="260" y="1308.32"/>
      <point x="260" y="1050" type="curve" smooth="yes"/>
      <point x="260" y="907.318"/>
      <point x="270" y="795.318"/>
      <point x="283" y="717" type="curve"/>
      <point x="167" y="604" type="line"/>
      <point x="152" y="705.318"/>
      <point x="135" y="860.028"/>
      <point x="135" y="1050" type="curve" smooth="yes"/>
      <point x="135" y="1362.32"/>
      <point x="268" y="1650"/>
      <point x="655" y="1650" type="curve" smooth="yes"/>
      <point x="882" y="1650"/>
      <point x="1041" y="1504"/>
      <point x="1081" y="1382" type="curve" smooth="yes"/>
      <point x="1084" y="1372"/>
      <point x="1077" y="1360"/>
      <point x="1067" y="1356" type="curve" smooth="yes"/>
      <point x="1035" y="1345" type="line" smooth="yes"/>
      <point x="1027" y="1342"/>
      <point x="1014" y="1350"/>
      <point x="1010" y="1360" type="curve" smooth="yes"/>
      <point x="965" y="1460"/>
      <point x="851" y="1555"/>
    </contour>
  </outline>
</glyph>
<glyph name="uni1987" format="1">
  <advance width="1225"/>
  <unicode hex="1987"/>
  <outline>
    <contour>
      <point x="590" y="-635" type="curve" smooth="yes"/>
      <point x="856" y="-635"/>
      <point x="990" y="-319"/>
      <point x="990" y="145" type="curve" smooth="yes"/>
      <point x="990" y="572"/>
      <point x="840" y="805"/>
      <point x="595" y="805" type="curve" smooth="yes"/>
      <point x="355" y="805"/>
      <point x="235" y="598"/>
      <point x="235" y="395" type="curve" smooth="yes"/>
      <point x="235" y="216"/>
      <point x="247" y="105"/>
      <point x="335" y="105" type="curve" smooth="yes"/>
      <point x="375" y="105"/>
      <point x="421.648" y="146.164"/>
      <point x="463" y="201" type="curve" smooth="yes"/>
      <point x="509" y="262"/>
      <point x="570" y="320"/>
      <point x="635" y="320" type="curve" smooth="yes"/>
      <point x="748" y="320"/>
      <point x="825" y="242"/>
      <point x="825" y="130" type="curve" smooth="yes"/>
      <point x="825" y="42"/>
      <point x="752" y="-21"/>
      <point x="711" y="-44" type="curve" smooth="yes"/>
      <point x="702" y="-49"/>
      <point x="693" y="-45"/>
      <point x="687" y="-36" type="curve" smooth="yes"/>
      <point x="640" y="42" type="line" smooth="yes"/>
      <point x="634" y="51"/>
      <point x="641" y="60"/>
      <point x="649" y="65" type="curve" smooth="yes"/>
      <point x="666" y="75"/>
      <point x="700" y="90"/>
      <point x="700" y="130" type="curve" smooth="yes"/>
      <point x="700" y="172"/>
      <point x="668" y="195"/>
      <point x="635" y="195" type="curve" smooth="yes"/>
      <point x="607" y="195"/>
      <point x="568.65" y="146.315"/>
      <point x="529" y="92" type="curve" smooth="yes"/>
      <point x="483.903" y="30.2236"/>
      <point x="415" y="-20"/>
      <point x="335" y="-20" type="curve" smooth="yes"/>
      <point x="163" y="-20"/>
      <point x="110" y="136"/>
      <point x="110" y="395" type="curve" smooth="yes"/>
      <point x="110" y="661"/>
      <point x="280" y="930"/>
      <point x="595" y="930" type="curve" smooth="yes"/>
      <point x="905" y="930"/>
      <point x="1115" y="671"/>
      <point x="1115" y="145" type="curve" smooth="yes"/>
      <point x="1115" y="-420"/>
      <point x="923" y="-740"/>
      <point x="590" y="-740" type="curve" smooth="yes"/>
      <point x="353" y="-740"/>
      <point x="194" y="-584"/>
      <point x="154" y="-412" type="curve" smooth="yes"/>
      <point x="152" y="-402"/>
      <point x="158" y="-390"/>
      <point x="168" y="-386" type="curve" smooth="yes"/>
      <point x="200" y="-375" type="line" smooth="yes"/>
      <point x="208" y="-372"/>
      <point x="222" y="-379"/>
      <point x="225" y="-390" type="curve" smooth="yes"/>
      <point x="270" y="-540"/>
      <point x="384" y="-635"/>
    </contour>
  </outline>
</glyph>
<glyph name="uni1988" format="1">
  <advance width="1115"/>
  <unicode hex="1988"/>
  <outline>
    <contour>
      <point x="462" y="495" type="curve"/>
      <point x="462" y="410" type="line"/>
      <point x="367" y="410"/>
      <point x="245" y="364"/>
      <point x="245" y="270" type="curve" smooth="yes"/>
      <point x="245" y="158"/>
      <point x="350" y="105"/>
      <point x="515" y="105" type="curve" smooth="yes"/>
      <point x="737" y="105"/>
      <point x="880" y="267"/>
      <point x="880" y="460" type="curve" smooth="yes"/>
      <point x="880" y="653"/>
      <point x="747" y="805"/>
      <point x="515" y="805" type="curve" smooth="yes"/>
      <point x="360" y="805"/>
      <point x="245" y="762"/>
      <point x="245" y="640" type="curve" smooth="yes"/>
      <point x="245" y="546"/>
      <point x="367" y="493"/>
      <point x="462" y="494" type="curve" smooth="yes"/>
      <point x="472" y="494"/>
      <point x="482" y="487"/>
      <point x="482" y="476" type="curve" smooth="yes"/>
      <point x="482" y="426" type="line" smooth="yes"/>
      <point x="482" y="417"/>
      <point x="472" y="409"/>
      <point x="462" y="409" type="curve" smooth="yes"/>
      <point x="327" y="409"/>
      <point x="120" y="466"/>
      <point x="120" y="650" type="curve" smooth="yes"/>
      <point x="120" y="828"/>
      <point x="280" y="930"/>
      <point x="515" y="930" type="curve" smooth="yes"/>
      <point x="824" y="930"/>
      <point x="1005" y="733"/>
      <point x="1005" y="455" type="curve" smooth="yes"/>
      <point x="1005" y="177"/>
      <point x="804" y="-20"/>
      <point x="515" y="-20" type="curve" smooth="yes"/>
      <point x="270" y="-20"/>
      <point x="120" y="82"/>
      <point x="120" y="260" type="curve" smooth="yes"/>
      <point x="120" y="424"/>
      <point x="328" y="495"/>
    </contour>
  </outline>
</glyph>
<glyph name="uni198A" format="1">
  <advance width="1434"/>
  <unicode hex="198A"/>
  <outline>
    <contour>
      <point x="556" y="-20" type="curve" smooth="yes"/>
      <point x="291" y="-20"/>
      <point x="120" y="67"/>
      <point x="120" y="265" type="curve" smooth="yes"/>
      <point x="120" y="402"/>
      <point x="260" y="506"/>
      <point x="386" y="506" type="curve" smooth="yes"/>
      <point x="450" y="506" type="line" smooth="yes"/>
      <point x="473" y="506"/>
      <point x="496" y="494"/>
      <point x="496" y="472" type="curve" smooth="yes"/>
      <point x="496" y="450"/>
      <point x="472" y="432"/>
      <point x="450" y="432" type="curve" smooth="yes"/>
      <point x="315" y="433"/>
      <point x="246" y="369"/>
      <point x="246" y="275" type="curve" smooth="yes"/>
      <point x="246" y="143"/>
      <point x="361" y="105"/>
      <point x="556" y="105" type="curve" smooth="yes"/>
      <point x="903" y="105"/>
      <point x="914.311" y="466.869"/>
      <point x="877" y="770" type="curve" smooth="yes"/>
      <point x="808.912" y="1323.17"/>
      <point x="844" y="1650"/>
      <point x="1121" y="1650" type="curve" smooth="yes"/>
      <point x="1348" y="1650"/>
      <point x="1400" y="1480"/>
      <point x="1350" y="1230" type="curve" smooth="yes"/>
      <point x="1348" y="1220"/>
      <point x="1343" y="1210"/>
      <point x="1334" y="1210" type="curve" smooth="yes"/>
      <point x="1294" y="1211" type="line" smooth="yes"/>
      <point x="1283" y="1211"/>
      <point x="1276" y="1220"/>
      <point x="1276" y="1230" type="curve" smooth="yes"/>
      <point x="1276" y="1419"/>
      <point x="1260" y="1555"/>
      <point x="1121" y="1555" type="curve" smooth="yes"/>
      <point x="968" y="1555"/>
      <point x="938.27" y="1274.14"/>
      <point x="1003" y="770" type="curve" smooth="yes"/>
      <point x="1053.24" y="378.75"/>
      <point x="976" y="-20"/>
    </contour>
    <contour>
      <point x="498" y="430" type="curve" smooth="yes"/>
      <point x="287" y="430"/>
      <point x="120" y="499"/>
      <point x="120" y="680" type="curve" smooth="yes"/>
      <point x="120" y="815"/>
      <point x="223" y="930"/>
      <point x="420" y="930" type="curve" smooth="yes"/>
      <point x="511" y="930"/>
      <point x="569" y="904"/>
      <point x="600" y="881" type="curve" smooth="yes"/>
      <point x="608" y="875"/>
      <point x="613" y="866"/>
      <point x="608" y="857" type="curve" smooth="yes"/>
      <point x="562" y="783" type="line" smooth="yes"/>
      <point x="557" y="775"/>
      <point x="544" y="771"/>
      <point x="534" y="776" type="curve" smooth="yes"/>
      <point x="517" y="785"/>
      <point x="490" y="805"/>
      <point x="420" y="805" type="curve" smooth="yes"/>
      <point x="301" y="805"/>
      <point x="246" y="744"/>
      <point x="246" y="680" type="curve" smooth="yes"/>
      <point x="246" y="593"/>
      <point x="282" y="515"/>
      <point x="498" y="515" type="curve" smooth="yes"/>
      <point x="508" y="515"/>
      <point x="518" y="508"/>
      <point x="518" y="497" type="curve" smooth="yes"/>
      <point x="518" y="447" type="line" smooth="yes"/>
      <point x="518" y="438"/>
      <point x="508" y="430"/>
    </contour>
  </outline>
</glyph>
<glyph name="uni198F" format="1">
  <advance width="1175"/>
  <unicode hex="198F"/>
  <outline>
    <contour>
      <point x="487" y="480" type="curve" smooth="yes"/>
      <point x="497" y="480"/>
      <point x="507" y="472"/>
      <point x="507" y="463" type="curve" smooth="yes"/>
      <point x="507" y="413" type="line" smooth="yes"/>
      <point x="507" y="402"/>
      <point x="497" y="395"/>
      <point x="487" y="395" type="curve" smooth="yes"/>
      <point x="331" y="395"/>
      <point x="245" y="317"/>
      <point x="245" y="230" type="curve" smooth="yes"/>
      <point x="245" y="146"/>
      <point x="311" y="105"/>
      <point x="410" y="105" type="curve" smooth="yes"/>
      <point x="480" y="105"/>
      <point x="528" y="121"/>
      <point x="545" y="130" type="curve" smooth="yes"/>
      <point x="555" y="135"/>
      <point x="567" y="131"/>
      <point x="572" y="123" type="curve" smooth="yes"/>
      <point x="618" y="49" type="line" smooth="yes"/>
      <point x="623" y="40"/>
      <point x="618" y="31"/>
      <point x="610" y="25" type="curve" smooth="yes"/>
      <point x="579" y="2"/>
      <point x="501" y="-20"/>
      <point x="410" y="-20" type="curve" smooth="yes"/>
      <point x="243" y="-20"/>
      <point x="120" y="85"/>
      <point x="120" y="230" type="curve" smooth="yes"/>
      <point x="120" y="411"/>
      <point x="326" y="480"/>
    </contour>
    <contour>
      <point x="545" y="-740" type="curve" smooth="yes"/>
      <point x="328" y="-740"/>
      <point x="194" y="-624"/>
      <point x="144" y="-522" type="curve" smooth="yes"/>
      <point x="139" y="-513"/>
      <point x="148" y="-500"/>
      <point x="158" y="-496" type="curve" smooth="yes"/>
      <point x="190" y="-485" type="line" smooth="yes"/>
      <point x="198" y="-482"/>
      <point x="209" y="-491"/>
      <point x="215" y="-500" type="curve" smooth="yes"/>
      <point x="260" y="-570"/>
      <point x="369" y="-635"/>
      <point x="545" y="-635" type="curve" smooth="yes"/>
      <point x="821" y="-635"/>
      <point x="940" y="-334"/>
      <point x="940" y="120" type="curve" smooth="yes"/>
      <point x="940" y="597"/>
      <point x="820" y="805"/>
      <point x="545" y="805" type="curve" smooth="yes"/>
      <point x="390" y="805"/>
      <point x="245" y="752"/>
      <point x="245" y="630" type="curve" smooth="yes"/>
      <point x="245" y="556"/>
      <point x="341" y="480"/>
      <point x="487" y="480" type="curve" smooth="yes"/>
      <point x="497" y="480"/>
      <point x="507" y="472"/>
      <point x="507" y="463" type="curve" smooth="yes"/>
      <point x="507" y="413" type="line" smooth="yes"/>
      <point x="507" y="402"/>
      <point x="497" y="395"/>
      <point x="487" y="395" type="curve" smooth="yes"/>
      <point x="343" y="395"/>
      <point x="120" y="454"/>
      <point x="120" y="630" type="curve" smooth="yes"/>
      <point x="120" y="828"/>
      <point x="320" y="930"/>
      <point x="545" y="930" type="curve" smooth="yes"/>
      <point x="905" y="930"/>
      <point x="1065" y="726"/>
      <point x="1065" y="120" type="curve" smooth="yes"/>
      <point x="1065" y="-435"/>
      <point x="888" y="-740"/>
    </contour>
  </outline>
</glyph>
<glyph name="uni1992" format="1">
  <advance width="1290"/>
  <unicode hex="1992"/>
  <outline>
    <contour>
      <point x="606" y="332" type="curve"/>
      <point x="691" y="332" type="line"/>
      <point x="691" y="237"/>
      <point x="746" y="105"/>
      <point x="850" y="105" type="curve" smooth="yes"/>
      <point x="982" y="105"/>
      <point x="1055" y="210"/>
      <point x="1055" y="385" type="curve" smooth="yes"/>
      <point x="1055" y="637"/>
      <point x="883" y="805"/>
      <point x="640" y="805" type="curve" smooth="yes"/>
      <point x="397" y="805"/>
      <point x="235" y="637"/>
      <point x="235" y="385" type="curve" smooth="yes"/>
      <point x="235" y="210"/>
      <point x="308" y="105"/>
      <point x="440" y="105" type="curve" smooth="yes"/>
      <point x="544" y="105"/>
      <point x="608" y="237"/>
      <point x="607" y="332" type="curve" smooth="yes"/>
      <point x="607" y="342"/>
      <point x="614" y="352"/>
      <point x="625" y="352" type="curve" smooth="yes"/>
      <point x="675" y="352" type="line" smooth="yes"/>
      <point x="684" y="352"/>
      <point x="692" y="342"/>
      <point x="692" y="332" type="curve" smooth="yes"/>
      <point x="692" y="197"/>
      <point x="644" y="-20"/>
      <point x="430" y="-20" type="curve" smooth="yes"/>
      <point x="232" y="-20"/>
      <point x="110" y="140"/>
      <point x="110" y="385" type="curve" smooth="yes"/>
      <point x="110" y="703"/>
      <point x="317" y="930"/>
      <point x="645" y="930" type="curve" smooth="yes"/>
      <point x="973" y="930"/>
      <point x="1180" y="704"/>
      <point x="1180" y="385" type="curve" smooth="yes"/>
      <point x="1180" y="140"/>
      <point x="1058" y="-20"/>
      <point x="860" y="-20" type="curve" smooth="yes"/>
      <point x="666" y="-20"/>
      <point x="606" y="198"/>
    </contour>
  </outline>
</glyph>
<glyph name="uni1993" format="1">
  <advance width="1190"/>
  <unicode hex="1993"/>
  <outline>
    <contour>
      <point x="580" y="-740" type="curve" smooth="yes"/>
      <point x="353" y="-740"/>
      <point x="165" y="-584"/>
      <point x="135" y="-372" type="curve" smooth="yes"/>
      <point x="134" y="-362"/>
      <point x="139" y="-350"/>
      <point x="149" y="-346" type="curve" smooth="yes"/>
      <point x="181" y="-335" type="line" smooth="yes"/>
      <point x="189" y="-332"/>
      <point x="204" y="-339"/>
      <point x="206" y="-350" type="curve" smooth="yes"/>
      <point x="241" y="-540"/>
      <point x="404" y="-635"/>
      <point x="580" y="-635" type="curve" smooth="yes"/>
      <point x="817" y="-635"/>
      <point x="955" y="-470"/>
      <point x="955" y="-240" type="curve" smooth="yes"/>
      <point x="955" y="-9"/>
      <point x="836" y="135"/>
      <point x="590" y="135" type="curve" smooth="yes"/>
      <point x="433" y="135"/>
      <point x="263" y="45"/>
      <point x="157" y="-35" type="curve"/>
      <point x="147" y="-37"/>
      <point x="125" y="-9"/>
      <point x="135" y="-21" type="curve"/>
      <point x="135" y="315" type="line" smooth="yes"/>
      <point x="135" y="752"/>
      <point x="326" y="930"/>
      <point x="600" y="930" type="curve" smooth="yes"/>
      <point x="908" y="930"/>
      <point x="1036" y="742"/>
      <point x="1050" y="515" type="curve" smooth="yes"/>
      <point x="1051" y="503"/>
      <point x="1046" y="495"/>
      <point x="1036" y="495" type="curve" smooth="yes"/>
      <point x="943" y="495" type="line" smooth="yes"/>
      <point x="931" y="495"/>
      <point x="926" y="502"/>
      <point x="925" y="515" type="curve" smooth="yes"/>
      <point x="911" y="677"/>
      <point x="810" y="805"/>
      <point x="600" y="805" type="curve" smooth="yes"/>
      <point x="384" y="805"/>
      <point x="260" y="657"/>
      <point x="260" y="305" type="curve" smooth="yes"/>
      <point x="260" y="168" type="line" smooth="yes"/>
      <point x="260" y="157"/>
      <point x="269" y="144"/>
      <point x="279" y="150" type="curve" smooth="yes"/>
      <point x="365" y="207"/>
      <point x="496" y="260"/>
      <point x="600" y="260" type="curve" smooth="yes"/>
      <point x="930" y="260"/>
      <point x="1080" y="73"/>
      <point x="1080" y="-240" type="curve" smooth="yes"/>
      <point x="1080" y="-543"/>
      <point x="887" y="-740"/>
    </contour>
  </outline>
</glyph>
<glyph name="uni1995" format="1">
  <advance width="1228"/>
  <unicode hex="1995"/>
  <outline>
    <contour>
      <point x="1110" y="90" type="curve" smooth="yes"/>
      <point x="1119" y="87"/>
      <point x="1123" y="73"/>
      <point x="1118" y="64" type="curve" smooth="yes"/>
      <point x="1072" y="-15" type="line" smooth="yes"/>
      <point x="1068" y="-23"/>
      <point x="1056" y="-24"/>
      <point x="1045" y="-20" type="curve" smooth="yes"/>
      <point x="848" y="52"/>
      <point x="675" y="311"/>
      <point x="675" y="580" type="curve" smooth="yes"/>
      <point x="675" y="793"/>
      <point x="729" y="930"/>
      <point x="880" y="930" type="curve"/>
      <point x="880" y="825" type="line"/>
      <point x="805" y="821"/>
      <point x="780" y="719"/>
      <point x="780" y="585" type="curve" smooth="yes"/>
      <point x="780" y="364"/>
      <point x="946" y="147"/>
    </contour>
    <contour>
      <point x="120" y="670" type="curve" smooth="yes"/>
      <point x="120" y="815"/>
      <point x="233" y="930"/>
      <point x="380" y="930" type="curve" smooth="yes"/>
      <point x="451" y="930"/>
      <point x="499" y="918"/>
      <point x="550" y="895" type="curve" smooth="yes"/>
      <point x="559.116" y="890.889"/>
      <point x="562.945" y="880.03"/>
      <point x="558" y="871" type="curve" smooth="yes"/>
      <point x="512" y="787" type="line" smooth="yes"/>
      <point x="508" y="779"/>
      <point x="494.855" y="774.721"/>
      <point x="485" y="780" type="curve" smooth="yes"/>
      <point x="457" y="795"/>
      <point x="430" y="805"/>
      <point x="380" y="805" type="curve" smooth="yes"/>
      <point x="301" y="805"/>
      <point x="245" y="754"/>
      <point x="245" y="670" type="curve" smooth="yes"/>
      <point x="245" y="583"/>
      <point x="290" y="515"/>
      <point x="477" y="515" type="curve" smooth="yes"/>
      <point x="487" y="515"/>
      <point x="497" y="508"/>
      <point x="497" y="497" type="curve" smooth="yes"/>
      <point x="497" y="447" type="line" smooth="yes"/>
      <point x="497" y="438"/>
      <point x="487" y="430"/>
      <point x="477" y="430" type="curve" smooth="yes"/>
      <point x="316" y="430"/>
      <point x="120" y="489"/>
    </contour>
    <contour>
      <point x="505" y="-20" type="curve" smooth="yes"/>
      <point x="280" y="-20"/>
      <point x="120" y="72"/>
      <point x="120" y="270" type="curve" smooth="yes"/>
      <point x="120" y="392"/>
      <point x="259" y="512"/>
      <point x="415" y="512" type="curve" smooth="yes"/>
      <point x="480" y="512" type="line" smooth="yes"/>
      <point x="489" y="512"/>
      <point x="495" y="494"/>
      <point x="495" y="472" type="curve" smooth="yes"/>
      <point x="495" y="450"/>
      <point x="493" y="430.021"/>
      <point x="480" y="430" type="curve" smooth="yes"/>
      <point x="295.006" y="429.692"/>
      <point x="245" y="354"/>
      <point x="245" y="280" type="curve" smooth="yes"/>
      <point x="245" y="148"/>
      <point x="350" y="105"/>
      <point x="505" y="105" type="curve" smooth="yes"/>
      <point x="827" y="105"/>
      <point x="980" y="382"/>
      <point x="980" y="585" type="curve" smooth="yes"/>
      <point x="980" y="719"/>
      <point x="955" y="821"/>
      <point x="880" y="825" type="curve"/>
      <point x="880" y="930" type="line"/>
      <point x="1031" y="930"/>
      <point x="1085" y="793"/>
      <point x="1085" y="580" type="curve" smooth="yes"/>
      <point x="1085" y="292"/>
      <point x="894" y="-20"/>
    </contour>
  </outline>
</glyph>
<glyph name="uni1998" format="1">
  <advance width="1786"/>
  <unicode hex="1998"/>
  <outline>
    <contour>
      <point x="1231" y="805" type="curve" smooth="yes"/>
      <point x="1042" y="805"/>
      <point x="916" y="700"/>
      <point x="856" y="606" type="curve"/>
      <point x="786" y="715" type="line"/>
      <point x="868" y="824"/>
      <point x="1034" y="930"/>
      <point x="1231" y="930" type="curve" smooth="yes"/>
      <point x="1508" y="930"/>
      <point x="1676" y="742"/>
      <point x="1676" y="450" type="curve" smooth="yes"/>
      <point x="1676" y="208"/>
      <point x="1546" y="-19"/>
      <point x="1251" y="-20" type="curve" smooth="yes"/>
      <point x="1194" y="-20"/>
      <point x="1122" y="-9"/>
      <point x="1071" y="20" type="curve" smooth="yes"/>
      <point x="1062" y="25"/>
      <point x="1058" y="36"/>
      <point x="1063" y="45" type="curve" smooth="yes"/>
      <point x="1109" y="124" type="line" smooth="yes"/>
      <point x="1113" y="132"/>
      <point x="1127" y="135"/>
      <point x="1136" y="130" type="curve" smooth="yes"/>
      <point x="1162" y="115"/>
      <point x="1211" y="105"/>
      <point x="1251" y="105" type="curve" smooth="yes"/>
      <point x="1461" y="105"/>
      <point x="1551" y="270"/>
      <point x="1551" y="450" type="curve" smooth="yes"/>
      <point x="1551" y="670"/>
      <point x="1407" y="805"/>
    </contour>
    <contour>
      <point x="500" y="-20" type="curve" smooth="yes"/>
      <point x="353" y="-20"/>
      <point x="227" y="38"/>
      <point x="120" y="175" type="curve" smooth="yes"/>
      <point x="112" y="185"/>
      <point x="116" y="199"/>
      <point x="126" y="207" type="curve" smooth="yes"/>
      <point x="195" y="261" type="line" smooth="yes"/>
      <point x="205" y="269"/>
      <point x="218" y="265"/>
      <point x="225" y="255" type="curve" smooth="yes"/>
      <point x="306" y="148"/>
      <point x="389" y="105"/>
      <point x="500" y="105" type="curve" smooth="yes"/>
      <point x="657" y="105"/>
      <point x="805" y="198"/>
      <point x="805" y="450" type="curve" smooth="yes"/>
      <point x="805" y="699"/>
      <point x="662" y="805"/>
      <point x="490" y="805" type="curve" smooth="yes"/>
      <point x="379" y="805"/>
      <point x="296" y="762"/>
      <point x="215" y="655" type="curve" smooth="yes"/>
      <point x="208" y="645"/>
      <point x="196" y="642"/>
      <point x="185" y="649" type="curve"/>
      <point x="116" y="703" type="line"/>
      <point x="105" y="710"/>
      <point x="102" y="725"/>
      <point x="110" y="735" type="curve" smooth="yes"/>
      <point x="217" y="872"/>
      <point x="343" y="930"/>
      <point x="490" y="930" type="curve" smooth="yes"/>
      <point x="755" y="930"/>
      <point x="930" y="738"/>
      <point x="930" y="450" type="curve" smooth="yes"/>
      <point x="930" y="146"/>
      <point x="756" y="-20"/>
    </contour>
  </outline>
</glyph>
<glyph name="uni199C" format="1">
  <advance width="1735"/>
  <unicode hex="199C"/>
  <outline>
    <contour>
      <point x="110" y="450" type="curve" smooth="yes"/>
      <point x="110" y="722"/>
      <point x="220" y="929"/>
      <point x="465" y="930" type="curve" smooth="yes"/>
      <point x="497" y="930"/>
      <point x="534" y="925"/>
      <point x="565" y="912" type="curve" smooth="yes"/>
      <point x="575" y="908"/>
      <point x="578" y="896"/>
      <point x="573" y="887" type="curve" smooth="yes"/>
      <point x="527" y="808" type="line" smooth="yes"/>
      <point x="523" y="800"/>
      <point x="511" y="800"/>
      <point x="500" y="802" type="curve" smooth="yes"/>
      <point x="491" y="804"/>
      <point x="476" y="805"/>
      <point x="465" y="805" type="curve" smooth="yes"/>
      <point x="305" y="805"/>
      <point x="235" y="640"/>
      <point x="235" y="450" type="curve" smooth="yes"/>
      <point x="235" y="220"/>
      <point x="362" y="105"/>
      <point x="508" y="105" type="curve" smooth="yes"/>
      <point x="694" y="105"/>
      <point x="770" y="238"/>
      <point x="803" y="455" type="curve" smooth="yes"/>
      <point x="839" y="689"/>
      <point x="912" y="930"/>
      <point x="1213" y="930" type="curve" smooth="yes"/>
      <point x="1510" y="930"/>
      <point x="1625" y="672"/>
      <point x="1625" y="420" type="curve" smooth="yes"/>
      <point x="1625" y="158"/>
      <point x="1495" y="-19"/>
      <point x="1250" y="-20" type="curve" smooth="yes"/>
      <point x="1218" y="-20"/>
      <point x="1181" y="-15"/>
      <point x="1150" y="-2" type="curve" smooth="yes"/>
      <point x="1140" y="2"/>
      <point x="1137" y="14"/>
      <point x="1142" y="23" type="curve" smooth="yes"/>
      <point x="1188" y="102" type="line" smooth="yes"/>
      <point x="1192" y="110"/>
      <point x="1204" y="110"/>
      <point x="1215" y="108" type="curve" smooth="yes"/>
      <point x="1224" y="106"/>
      <point x="1239" y="105"/>
      <point x="1250" y="105" type="curve" smooth="yes"/>
      <point x="1410" y="105"/>
      <point x="1500" y="230"/>
      <point x="1500" y="420" type="curve" smooth="yes"/>
      <point x="1500" y="610"/>
      <point x="1419" y="805"/>
      <point x="1213" y="805" type="curve" smooth="yes"/>
      <point x="1024" y="805"/>
      <point x="961" y="639"/>
      <point x="933" y="455" type="curve" smooth="yes"/>
      <point x="891" y="178"/>
      <point x="796" y="-20"/>
      <point x="508" y="-20" type="curve" smooth="yes"/>
      <point x="261" y="-20"/>
      <point x="110" y="158"/>
    </contour>
    <contour>
      <point x="1320" y="-635" type="curve" smooth="yes"/>
      <point x="1419" y="-635"/>
      <point x="1480" y="-557"/>
      <point x="1480" y="-395" type="curve" smooth="yes"/>
      <point x="1480" y="152" type="line"/>
      <point x="1605" y="480" type="line"/>
      <point x="1605" y="-395" type="line" smooth="yes"/>
      <point x="1605" y="-623"/>
      <point x="1508" y="-740"/>
      <point x="1320" y="-740" type="curve" smooth="yes"/>
      <point x="1149" y="-740"/>
      <point x="1084.11" y="-624.709"/>
      <point x="1040" y="-533" type="curve" smooth="yes"/>
      <point x="988.604" y="-426.146"/>
      <point x="933.5" y="-315"/>
      <point x="815" y="-315" type="curve" smooth="yes"/>
      <point x="702" y="-315"/>
      <point x="640" y="-398"/>
      <point x="640" y="-490" type="curve" smooth="yes"/>
      <point x="640" y="-583"/>
      <point x="686" y="-665"/>
      <point x="840" y="-665" type="curve" smooth="yes"/>
      <point x="849" y="-665"/>
      <point x="859" y="-679"/>
      <point x="859" y="-687" type="curve" smooth="yes"/>
      <point x="859" y="-724" type="line" smooth="yes"/>
      <point x="859" y="-734"/>
      <point x="850" y="-740"/>
      <point x="840" y="-740" type="curve" smooth="yes"/>
      <point x="604" y="-740"/>
      <point x="528.42" y="-638.007"/>
      <point x="530" y="-490" type="curve" smooth="yes"/>
      <point x="531.729" y="-327.998"/>
      <point x="662" y="-215"/>
      <point x="815" y="-215" type="curve" smooth="yes"/>
      <point x="995.5" y="-215"/>
      <point x="1055.97" y="-325.514"/>
      <point x="1104" y="-428" type="curve" smooth="yes"/>
      <point x="1158.94" y="-545.246"/>
      <point x="1207" y="-635"/>
    </contour>
  </outline>
</glyph>
<glyph name="uni199D" format="1">
  <advance width="1815"/>
  <unicode hex="199D"/>
  <outline>
    <contour>
      <point x="665" y="1555" type="curve" smooth="yes"/>
      <point x="368" y="1555"/>
      <point x="270" y="1308.32"/>
      <point x="270" y="1050" type="curve" smooth="yes"/>
      <point x="270" y="907.318"/>
      <point x="280" y="795.318"/>
      <point x="293" y="717" type="curve"/>
      <point x="177" y="604" type="line"/>
      <point x="162" y="705.318"/>
      <point x="145" y="860.028"/>
      <point x="145" y="1050" type="curve" smooth="yes"/>
      <point x="145" y="1362.32"/>
      <point x="278" y="1650"/>
      <point x="665" y="1650" type="curve" smooth="yes"/>
      <point x="892" y="1650"/>
      <point x="1051" y="1504"/>
      <point x="1091" y="1382" type="curve" smooth="yes"/>
      <point x="1094" y="1372"/>
      <point x="1087" y="1360"/>
      <point x="1077" y="1356" type="curve" smooth="yes"/>
      <point x="1045" y="1345" type="line" smooth="yes"/>
      <point x="1037" y="1342"/>
      <point x="1024" y="1350"/>
      <point x="1020" y="1360" type="curve" smooth="yes"/>
      <point x="975" y="1460"/>
      <point x="861" y="1555"/>
    </contour>
    <contour>
      <point x="955" y="530" type="curve" smooth="yes"/>
      <point x="955" y="520"/>
      <point x="947" y="510"/>
      <point x="938" y="510" type="curve" smooth="yes"/>
      <point x="888" y="510" type="line" smooth="yes"/>
      <point x="877" y="510"/>
      <point x="870" y="520"/>
      <point x="870" y="530" type="curve" smooth="yes"/>
      <point x="870" y="579"/>
      <point x="881" y="635"/>
      <point x="891" y="672" type="curve" smooth="yes"/>
      <point x="932" y="826"/>
      <point x="1093" y="930"/>
      <point x="1270" y="930" type="curve" smooth="yes"/>
      <point x="1537" y="930"/>
      <point x="1705" y="722"/>
      <point x="1705" y="460" type="curve" smooth="yes"/>
      <point x="1705" y="248"/>
      <point x="1615" y="-19"/>
      <point x="1370" y="-20" type="curve" smooth="yes"/>
      <point x="1338" y="-20"/>
      <point x="1301" y="-15"/>
      <point x="1270" y="-2" type="curve" smooth="yes"/>
      <point x="1260" y="2"/>
      <point x="1257" y="14"/>
      <point x="1262" y="23" type="curve" smooth="yes"/>
      <point x="1308" y="102" type="line" smooth="yes"/>
      <point x="1312" y="110"/>
      <point x="1324" y="110"/>
      <point x="1335" y="108" type="curve" smooth="yes"/>
      <point x="1344" y="106"/>
      <point x="1359" y="105"/>
      <point x="1370" y="105" type="curve" smooth="yes"/>
      <point x="1530" y="105"/>
      <point x="1580" y="316"/>
      <point x="1580" y="460" type="curve" smooth="yes"/>
      <point x="1580" y="660"/>
      <point x="1436" y="805"/>
      <point x="1270" y="805" type="curve" smooth="yes"/>
      <point x="1103" y="805"/>
      <point x="955" y="701"/>
    </contour>
    <contour>
      <point x="870" y="530" type="curve" smooth="yes"/>
      <point x="870" y="701"/>
      <point x="722" y="805"/>
      <point x="555" y="805" type="curve" smooth="yes"/>
      <point x="389" y="805"/>
      <point x="245" y="660"/>
      <point x="245" y="460" type="curve" smooth="yes"/>
      <point x="245" y="320"/>
      <point x="295" y="105"/>
      <point x="455" y="105" type="curve" smooth="yes"/>
      <point x="466" y="105"/>
      <point x="481" y="106"/>
      <point x="490" y="108" type="curve" smooth="yes"/>
      <point x="501" y="110"/>
      <point x="513" y="110"/>
      <point x="517" y="102" type="curve" smooth="yes"/>
      <point x="563" y="23" type="line" smooth="yes"/>
      <point x="568" y="14"/>
      <point x="565" y="2"/>
      <point x="555" y="-2" type="curve" smooth="yes"/>
      <point x="524" y="-15"/>
      <point x="487" y="-20"/>
      <point x="455" y="-20" type="curve" smooth="yes"/>
      <point x="210" y="-19"/>
      <point x="120" y="248"/>
      <point x="120" y="460" type="curve" smooth="yes"/>
      <point x="120" y="722"/>
      <point x="288" y="930"/>
      <point x="555" y="930" type="curve" smooth="yes"/>
      <point x="732" y="930"/>
      <point x="893" y="826"/>
      <point x="934" y="672" type="curve" smooth="yes"/>
      <point x="944" y="635"/>
      <point x="955" y="579"/>
      <point x="955" y="530" type="curve" smooth="yes"/>
      <point x="955" y="520"/>
      <point x="948" y="510"/>
      <point x="937" y="510" type="curve" smooth="yes"/>
      <point x="887" y="510" type="line" smooth="yes"/>
      <point x="878" y="510"/>
      <point x="870" y="520"/>
    </contour>
  </outline>
</glyph>
<glyph name="uni19A6" format="1">
  <advance width="1805"/>
  <unicode hex="19A6"/>
  <outline>
    <component base="uni1982"/>
    <contour>
      <point x="494" y="-485" type="curve" smooth="yes"/>
      <point x="494" y="-570"/>
      <point x="604" y="-595"/>
      <point x="710" y="-595" type="curve" smooth="yes"/>
      <point x="996" y="-595"/>
      <point x="1310" y="-430"/>
      <point x="1310" y="-325" type="curve" smooth="yes"/>
      <point x="1310" y="-250"/>
      <point x="1226" y="-210"/>
      <point x="1080" y="-210" type="curve" smooth="yes"/>
      <point x="794" y="-210"/>
      <point x="494" y="-370"/>
    </contour>
    <contour>
      <point x="380" y="-495" type="curve" smooth="yes"/>
      <point x="380" y="-300"/>
      <point x="756" y="-105"/>
      <point x="1100" y="-105" type="curve" smooth="yes"/>
      <point x="1304" y="-105"/>
      <point x="1424" y="-180"/>
      <point x="1424" y="-315" type="curve" smooth="yes"/>
      <point x="1424" y="-508"/>
      <point x="1034" y="-700"/>
      <point x="690" y="-700" type="curve" smooth="yes"/>
      <point x="526" y="-700"/>
      <point x="380" y="-638"/>
    </contour>
  </outline>
</glyph>
<glyph name="uni19AA" format="1">
  <advance width="1786"/>
  <unicode hex="19AA"/>
  <outline>
    <component base="uni1989"/>
    <contour>
      <point x="494" y="-485" type="curve" smooth="yes"/>
      <point x="494" y="-570"/>
      <point x="604" y="-595"/>
      <point x="710" y="-595" type="curve" smooth="yes"/>
      <point x="996" y="-595"/>
      <point x="1310" y="-430"/>
      <point x="1310" y="-325" type="curve" smooth="yes"/>
      <point x="1310" y="-250"/>
      <point x="1226" y="-210"/>
      <point x="1080" y="-210" type="curve" smooth="yes"/>
      <point x="794" y="-210"/>
      <point x="494" y="-370"/>
    </contour>
    <contour>
      <point x="380" y="-495" type="curve" smooth="yes"/>
      <point x="380" y="-300"/>
      <point x="756" y="-105"/>
      <point x="1100" y="-105" type="curve" smooth="yes"/>
      <point x="1304" y="-105"/>
      <point x="1424" y="-180"/>
      <point x="1424" y="-315" type="curve" smooth="yes"/>
      <point x="1424" y="-508"/>
      <point x="1034" y="-700"/>
      <point x="690" y="-700" type="curve" smooth="yes"/>
      <point x="526" y="-700"/>
      <point x="380" y="-638"/>
    </contour>
  </outline>
</glyph>
<glyph name="uni19B3" format="1">
  <advance width="1150"/>
  <unicode hex="19B3"/>
  <outline>
    <contour>
      <point x="596" y="-635" type="curve" smooth="yes"/>
      <point x="782" y="-635"/>
      <point x="916" y="-540"/>
      <point x="951" y="-290" type="curve" smooth="yes"/>
      <point x="953" y="-279"/>
      <point x="968" y="-272"/>
      <point x="976" y="-275" type="curve" smooth="yes"/>
      <point x="1008" y="-286" type="line" smooth="yes"/>
      <point x="1018" y="-290"/>
      <point x="1023" y="-302"/>
      <point x="1022" y="-312" type="curve" smooth="yes"/>
      <point x="992" y="-584"/>
      <point x="833" y="-740"/>
      <point x="596" y="-740" type="curve" smooth="yes"/>
      <point x="308" y="-740"/>
      <point x="130" y="-541"/>
      <point x="130" y="-250" type="curve" smooth="yes"/>
      <point x="130" y="250" type="line" smooth="yes"/>
      <point x="130" y="265.033"/>
      <point x="146" y="269"/>
      <point x="153" y="263" type="curve" smooth="yes"/>
      <point x="264" y="169"/>
      <point x="377" y="105"/>
      <point x="550" y="105" type="curve" smooth="yes"/>
      <point x="727" y="105"/>
      <point x="915" y="208"/>
      <point x="915" y="450" type="curve" smooth="yes"/>
      <point x="915" y="679"/>
      <point x="752" y="805"/>
      <point x="540" y="805" type="curve" smooth="yes"/>
      <point x="399" y="805"/>
      <point x="301" y="752"/>
      <point x="220" y="635" type="curve" smooth="yes"/>
      <point x="213.146" y="625.099"/>
      <point x="200" y="621"/>
      <point x="190" y="629" type="curve"/>
      <point x="121" y="673" type="line"/>
      <point x="111" y="681"/>
      <point x="107.788" y="694.418"/>
      <point x="115" y="705" type="curve" smooth="yes"/>
      <point x="222" y="862"/>
      <point x="353" y="930"/>
      <point x="540" y="930" type="curve" smooth="yes"/>
      <point x="845" y="930"/>
      <point x="1040" y="738"/>
      <point x="1040" y="450" type="curve" smooth="yes"/>
      <point x="1040" y="146"/>
      <point x="816" y="-20"/>
      <point x="550" y="-20" type="curve" smooth="yes"/>
      <point x="434" y="-20"/>
      <point x="354" y="8"/>
      <point x="283" y="47" type="curve" smooth="yes"/>
      <point x="276" y="51"/>
      <point x="264" y="46"/>
      <point x="265" y="38" type="curve"/>
      <point x="265" y="-21"/>
      <point x="264.986" y="-119.733"/>
      <point x="265" y="-250" type="curve"/>
      <point x="265" y="-503"/>
      <point x="410" y="-635"/>
    </contour>
  </outline>
</glyph>
<glyph name="uni19B4" format="1">
  <advance width="1419"/>
  <unicode hex="19B4"/>
  <outline>
    <contour>
      <point x="277.997" y="613" type="curve" smooth="yes"/>
      <point x="277.997" y="410" type="line"/>
      <point x="277.997" y="204"/>
      <point x="310.997" y="105"/>
      <point x="466.997" y="105" type="curve" smooth="yes"/>
      <point x="589.997" y="105"/>
      <point x="758.997" y="200"/>
      <point x="871.997" y="330" type="curve"/>
      <point x="921.997" y="246" type="line"/>
      <point x="781.997" y="88"/>
      <point x="611.997" y="-20"/>
      <point x="456.997" y="-20" type="curve" smooth="yes"/>
      <point x="209.997" y="-20"/>
      <point x="152.997" y="131.91"/>
      <point x="152.997" y="370" type="curve" smooth="yes"/>
      <point x="152.997" y="579" type="line" smooth="yes"/>
      <point x="152.997" y="693.998"/>
      <point x="126.997" y="794"/>
      <point x="92.9971" y="854" type="curve" smooth="yes"/>
      <point x="87.9971" y="862"/>
      <point x="94.7598" y="874.133"/>
      <point x="103.997" y="879" type="curve" smooth="yes"/>
      <point x="196.997" y="928" type="line" smooth="yes"/>
      <point x="204.441" y="932.192"/>
      <point x="213.997" y="924"/>
      <point x="219.997" y="914" type="curve" smooth="yes"/>
      <point x="255.997" y="849"/>
      <point x="278.568" y="729.004"/>
    </contour>
    <contour>
      <point x="1113" y="-635" type="curve" smooth="yes"/>
      <point x="1252" y="-635"/>
      <point x="1273" y="-483"/>
      <point x="1273" y="-294" type="curve" smooth="yes"/>
      <point x="1273" y="-284"/>
      <point x="1280" y="-275"/>
      <point x="1291" y="-275" type="curve" smooth="yes"/>
      <point x="1331" y="-275" type="line" smooth="yes"/>
      <point x="1340" y="-275"/>
      <point x="1346" y="-284"/>
      <point x="1348" y="-294" type="curve" smooth="yes"/>
      <point x="1398" y="-544"/>
      <point x="1340" y="-740"/>
      <point x="1113" y="-740" type="curve" smooth="yes"/>
      <point x="914.997" y="-740"/>
      <point x="847.997" y="-604"/>
      <point x="847.997" y="-250" type="curve" smooth="yes"/>
      <point x="847.997" y="890" type="line" smooth="yes"/>
      <point x="847.997" y="900"/>
      <point x="854.997" y="910"/>
      <point x="865.997" y="910" type="curve" smooth="yes"/>
      <point x="955.997" y="910" type="line" smooth="yes"/>
      <point x="964.997" y="910"/>
      <point x="972.997" y="900"/>
      <point x="972.997" y="890" type="curve" smooth="yes"/>
      <point x="972.997" y="-250" type="line" smooth="yes"/>
      <point x="972.997" y="-507"/>
      <point x="993.997" y="-635"/>
    </contour>
  </outline>
</glyph>
<glyph name="uni19BC" format="1">
  <advance width="1685"/>
  <unicode hex="19BC"/>
  <outline>
    <contour>
      <point x="285.997" y="613" type="curve" smooth="yes"/>
      <point x="284.997" y="410" type="line"/>
      <point x="284.997" y="204"/>
      <point x="317.997" y="105"/>
      <point x="453.997" y="105" type="curve" smooth="yes"/>
      <point x="576.997" y="105"/>
      <point x="715.997" y="200"/>
      <point x="828.997" y="330" type="curve"/>
      <point x="878.997" y="246" type="line"/>
      <point x="738.997" y="88"/>
      <point x="598.997" y="-20"/>
      <point x="443.997" y="-20" type="curve" smooth="yes"/>
      <point x="216.997" y="-20"/>
      <point x="159.997" y="131.91"/>
      <point x="159.997" y="370" type="curve" smooth="yes"/>
      <point x="159.997" y="579" type="line" smooth="yes"/>
      <point x="159.997" y="693.998"/>
      <point x="133.997" y="794"/>
      <point x="99.9971" y="854" type="curve" smooth="yes"/>
      <point x="94.9971" y="862"/>
      <point x="91.1191" y="875.615"/>
      <point x="100.997" y="879" type="curve" smooth="yes"/>
      <point x="203.997" y="928" type="line" smooth="yes"/>
      <point x="211.712" y="931.67"/>
      <point x="220.997" y="924"/>
      <point x="226.997" y="914" type="curve" smooth="yes"/>
      <point x="262.997" y="849"/>
      <point x="286.568" y="729.004"/>
    </contour>
    <contour>
      <point x="930" y="890" type="curve" smooth="yes"/>
      <point x="930" y="-305" type="line" smooth="yes"/>
      <point x="930" y="-497"/>
      <point x="1001" y="-625"/>
      <point x="1160" y="-625" type="curve" smooth="yes"/>
      <point x="1319" y="-625"/>
      <point x="1410" y="-497"/>
      <point x="1410" y="-305" type="curve" smooth="yes"/>
      <point x="1410" y="890" type="line" smooth="yes"/>
      <point x="1410" y="900"/>
      <point x="1417" y="910"/>
      <point x="1428" y="910" type="curve" smooth="yes"/>
      <point x="1518" y="910" type="line" smooth="yes"/>
      <point x="1527" y="910"/>
      <point x="1535" y="900"/>
      <point x="1535" y="890" type="curve" smooth="yes"/>
      <point x="1535" y="-305" type="line" smooth="yes"/>
      <point x="1535" y="-563"/>
      <point x="1408" y="-740"/>
      <point x="1160" y="-740" type="curve" smooth="yes"/>
      <point x="902" y="-740"/>
      <point x="805" y="-563"/>
      <point x="805" y="-305" type="curve" smooth="yes"/>
      <point x="805" y="890" type="line" smooth="yes"/>
      <point x="805" y="900"/>
      <point x="812" y="910"/>
      <point x="823" y="910" type="curve" smooth="yes"/>
      <point x="913" y="910" type="line" smooth="yes"/>
      <point x="922" y="910"/>
      <point x="930" y="900"/>
    </contour>
  </outline>
</glyph>
<glyph name="uni19C2" format="1">
  <advance width="1225"/>
  <unicode hex="19C2"/>
  <outline>
    <contour>
      <point x="1115" y="145" type="curve" smooth="yes"/>
      <point x="1115" y="-38"/>
      <point x="1091" y="-263"/>
      <point x="1031" y="-525" type="curve" smooth="yes"/>
      <point x="999" y="-664"/>
      <point x="925" y="-740"/>
      <point x="796" y="-740" type="curve" smooth="yes"/>
      <point x="677" y="-740"/>
      <point x="585" y="-653"/>
      <point x="585" y="-525" type="curve" smooth="yes"/>
      <point x="585" y="-395"/>
      <point x="677" y="-315"/>
      <point x="786" y="-315" type="curve" smooth="yes"/>
      <point x="839" y="-315"/>
      <point x="892" y="-333"/>
      <point x="935" y="-376" type="curve"/>
      <point x="970" y="-170"/>
      <point x="990" y="-15"/>
      <point x="990" y="145" type="curve" smooth="yes"/>
      <point x="990" y="572"/>
      <point x="840" y="805"/>
      <point x="595" y="805" type="curve" smooth="yes"/>
      <point x="355" y="805"/>
      <point x="235" y="598"/>
      <point x="235" y="395" type="curve" smooth="yes"/>
      <point x="235" y="216"/>
      <point x="247" y="105"/>
      <point x="335" y="105" type="curve" smooth="yes"/>
      <point x="375" y="105"/>
      <point x="421.648" y="146.164"/>
      <point x="463" y="201" type="curve" smooth="yes"/>
      <point x="509" y="262"/>
      <point x="570" y="320"/>
      <point x="635" y="320" type="curve" smooth="yes"/>
      <point x="748" y="320"/>
      <point x="825" y="242"/>
      <point x="825" y="130" type="curve" smooth="yes"/>
      <point x="825" y="42"/>
      <point x="752" y="-21"/>
      <point x="711" y="-44" type="curve" smooth="yes"/>
      <point x="702" y="-49"/>
      <point x="693" y="-45"/>
      <point x="687" y="-36" type="curve" smooth="yes"/>
      <point x="640" y="42" type="line" smooth="yes"/>
      <point x="634" y="51"/>
      <point x="641" y="60"/>
      <point x="649" y="65" type="curve" smooth="yes"/>
      <point x="666" y="75"/>
      <point x="700" y="90"/>
      <point x="700" y="130" type="curve" smooth="yes"/>
      <point x="700" y="172"/>
      <point x="668" y="195"/>
      <point x="635" y="195" type="curve" smooth="yes"/>
      <point x="607" y="195"/>
      <point x="568.65" y="146.315"/>
      <point x="529" y="92" type="curve" smooth="yes"/>
      <point x="483.903" y="30.2236"/>
      <point x="415" y="-20"/>
      <point x="335" y="-20" type="curve" smooth="yes"/>
      <point x="163" y="-20"/>
      <point x="110" y="136"/>
      <point x="110" y="395" type="curve" smooth="yes"/>
      <point x="110" y="661"/>
      <point x="280" y="930"/>
      <point x="595" y="930" type="curve" smooth="yes"/>
      <point x="905" y="930"/>
      <point x="1115" y="671"/>
    </contour>
    <contour>
      <point x="797" y="-635" type="curve" smooth="yes"/>
      <point x="863" y="-635"/>
      <point x="907" y="-590"/>
      <point x="907" y="-525" type="curve" smooth="yes"/>
      <point x="907" y="-458"/>
      <point x="862" y="-420"/>
      <point x="797" y="-420" type="curve" smooth="yes"/>
      <point x="731" y="-420"/>
      <point x="690" y="-460"/>
      <point x="690" y="-525" type="curve" smooth="yes"/>
      <point x="690" y="-590"/>
      <point x="731" y="-635"/>
    </contour>
  </outline>
</glyph>
<glyph name="uni19C8" format="1">
  <advance width="1114"/>
  <unicode hex="19C8"/>
  <outline>
    <contour>
      <point x="566" y="105" type="curve" smooth="yes"/>
      <point x="720" y="105"/>
      <point x="879" y="137"/>
      <point x="879" y="275" type="curve" smooth="yes"/>
      <point x="879" y="383"/>
      <point x="741" y="430"/>
      <point x="604" y="430" type="curve" smooth="yes"/>
      <point x="454" y="430"/>
      <point x="320" y="376"/>
      <point x="227" y="308" type="curve"/>
      <point x="174" y="411" type="line"/>
      <point x="287" y="480"/>
      <point x="449" y="540"/>
      <point x="604" y="540" type="curve" smooth="yes"/>
      <point x="813" y="540"/>
      <point x="994" y="449"/>
      <point x="994" y="275" type="curve" smooth="yes"/>
      <point x="994" y="62"/>
      <point x="797" y="-20"/>
      <point x="566" y="-20" type="curve" smooth="yes"/>
      <point x="280" y="-20"/>
      <point x="110" y="156"/>
      <point x="110" y="450" type="curve" smooth="yes"/>
      <point x="110" y="718"/>
      <point x="251" y="930"/>
      <point x="576" y="930" type="curve" smooth="yes"/>
      <point x="733" y="930"/>
      <point x="874" y="902"/>
      <point x="981" y="765" type="curve" smooth="yes"/>
      <point x="988.883" y="754.907"/>
      <point x="985" y="742"/>
      <point x="975" y="733" type="curve" smooth="yes"/>
      <point x="916" y="679" type="line" smooth="yes"/>
      <point x="906" y="670"/>
      <point x="893.825" y="675.632"/>
      <point x="886" y="685" type="curve" smooth="yes"/>
      <point x="815" y="770"/>
      <point x="707" y="805"/>
      <point x="576" y="805" type="curve" smooth="yes"/>
      <point x="354" y="805"/>
      <point x="235" y="679"/>
      <point x="235" y="450" type="curve" smooth="yes"/>
      <point x="235" y="208"/>
      <point x="369" y="105"/>
    </contour>
  </outline>
</glyph>
<glyph name="uni19D2" format="1">
  <advance width="1201"/>
  <unicode hex="19D2"/>
  <outline>
    <contour>
      <point x="925.002" y="115" type="curve" smooth="yes"/>
      <point x="925.999" y="649" type="line" smooth="yes"/>
      <point x="926.134" y="723.998"/>
      <point x="896.305" y="773"/>
      <point x="829.651" y="811.5" type="curve" smooth="yes"/>
      <point x="821.482" y="816.219"/>
      <point x="817.762" y="824.133"/>
      <point x="826.999" y="829" type="curve" smooth="yes"/>
      <point x="909.999" y="928" type="line" smooth="yes"/>
      <point x="915.488" y="934.548"/>
      <point x="923.735" y="925.536"/>
      <point x="933.999" y="920" type="curve" smooth="yes"/>
      <point x="1014.65" y="876.5"/>
      <point x="1051.2" y="819.005"/>
      <point x="1051" y="703" type="curve" smooth="yes"/>
      <point x="1050.15" y="123" type="line" smooth="yes"/>
      <point x="1049.48" y="-334.999"/>
      <point x="918.002" y="-740"/>
      <point x="505.002" y="-740" type="curve" smooth="yes"/>
      <point x="279.002" y="-740"/>
      <point x="101.002" y="-562"/>
      <point x="60.002" y="-412" type="curve" smooth="yes"/>
      <point x="57.002" y="-402"/>
      <point x="64.002" y="-390"/>
      <point x="74.002" y="-386" type="curve" smooth="yes"/>
      <point x="106.002" y="-375" type="line" smooth="yes"/>
      <point x="114.002" y="-372"/>
      <point x="128.002" y="-380"/>
      <point x="131.002" y="-390" type="curve" smooth="yes"/>
      <point x="173.002" y="-512"/>
      <point x="309.002" y="-635"/>
      <point x="505.002" y="-635" type="curve" smooth="yes"/>
      <point x="816.002" y="-635"/>
      <point x="924.289" y="-267.02"/>
    </contour>
  </outline>
</glyph>
<glyph name="uni19D5" format="1">
  <advance width="1255"/>
  <unicode hex="19D5"/>
  <outline>
    <contour>
      <point x="658.147" y="549.664" type="curve" smooth="yes"/>
      <point x="658.147" y="539.667"/>
      <point x="649" y="528"/>
      <point x="640" y="528" type="curve" smooth="yes"/>
      <point x="590" y="528" type="line" smooth="yes"/>
      <point x="579" y="528"/>
      <point x="572" y="538"/>
      <point x="572" y="548" type="curve" smooth="yes"/>
      <point x="572" y="704"/>
      <point x="522" y="805"/>
      <point x="405" y="805" type="curve" smooth="yes"/>
      <point x="301" y="805"/>
      <point x="245" y="713"/>
      <point x="245" y="624" type="curve" smooth="yes"/>
      <point x="245" y="556"/>
      <point x="270.149" y="515"/>
      <point x="341" y="475" type="curve" smooth="yes"/>
      <point x="350.257" y="469.773"/>
      <point x="342" y="452"/>
      <point x="334" y="448" type="curve"/>
      <point x="274" y="383" type="line"/>
      <point x="265" y="378"/>
      <point x="254.131" y="378.558"/>
      <point x="245" y="384" type="curve" smooth="yes"/>
      <point x="166.149" y="431"/>
      <point x="120" y="513"/>
      <point x="120" y="634" type="curve" smooth="yes"/>
      <point x="120" y="780"/>
      <point x="220" y="930"/>
      <point x="405" y="930" type="curve" smooth="yes"/>
      <point x="506.53" y="930"/>
      <point x="579.595" y="860.462"/>
      <point x="621.548" y="770.982" type="curve"/>
      <point x="666.611" y="861.185"/>
      <point x="756.912" y="930"/>
      <point x="845" y="930" type="curve" smooth="yes"/>
      <point x="1089" y="930"/>
      <point x="1145" y="705"/>
      <point x="1145" y="161" type="curve" smooth="yes"/>
      <point x="1145" y="-359"/>
      <point x="1021" y="-740"/>
      <point x="565" y="-740" type="curve" smooth="yes"/>
      <point x="299" y="-740"/>
      <point x="140" y="-534"/>
      <point x="100" y="-412" type="curve" smooth="yes"/>
      <point x="97" y="-402"/>
      <point x="104" y="-390"/>
      <point x="114" y="-386" type="curve" smooth="yes"/>
      <point x="146" y="-375" type="line" smooth="yes"/>
      <point x="154" y="-372"/>
      <point x="167" y="-380"/>
      <point x="171" y="-390" type="curve" smooth="yes"/>
      <point x="216" y="-490"/>
      <point x="329" y="-635"/>
      <point x="565" y="-635" type="curve" smooth="yes"/>
      <point x="929" y="-635"/>
      <point x="1020" y="-296"/>
      <point x="1020" y="161" type="curve" smooth="yes"/>
      <point x="1020" y="631"/>
      <point x="983" y="805"/>
      <point x="835" y="805" type="curve" smooth="yes"/>
      <point x="721" y="805"/>
      <point x="658.147" y="703.664"/>
    </contour>
  </outline>
</glyph>
<glyph name="uni19D7" format="1">
  <advance width="1679"/>
  <unicode hex="19D7"/>
  <outline>
    <contour>
      <point x="440" y="805" type="curve" smooth="yes"/>
      <point x="325" y="805"/>
      <point x="235" y="708"/>
      <point x="235" y="460" type="curve" smooth="yes"/>
      <point x="235" y="260"/>
      <point x="285" y="105"/>
      <point x="445" y="105" type="curve" smooth="yes"/>
      <point x="456" y="105"/>
      <point x="471" y="106"/>
      <point x="480" y="108" type="curve" smooth="yes"/>
      <point x="491" y="110"/>
      <point x="503" y="110"/>
      <point x="507" y="102" type="curve" smooth="yes"/>
      <point x="553" y="23" type="line" smooth="yes"/>
      <point x="558" y="14"/>
      <point x="555" y="2"/>
      <point x="545" y="-2" type="curve" smooth="yes"/>
      <point x="514" y="-15"/>
      <point x="477" y="-20"/>
      <point x="445" y="-20" type="curve" smooth="yes"/>
      <point x="200" y="-19"/>
      <point x="110" y="188"/>
      <point x="110" y="460" type="curve" smooth="yes"/>
      <point x="110" y="719"/>
      <point x="209" y="930"/>
      <point x="440" y="930" type="curve" smooth="yes"/>
      <point x="632" y="930"/>
      <point x="718" y="730"/>
      <point x="718" y="550" type="curve"/>
      <point x="634" y="550" type="line"/>
      <point x="634" y="684"/>
      <point x="550" y="805"/>
    </contour>
    <contour>
      <point x="1233" y="450" type="curve" smooth="yes"/>
      <point x="1233" y="-250" type="line" smooth="yes"/>
      <point x="1233" y="-507"/>
      <point x="1254" y="-635"/>
      <point x="1373" y="-635" type="curve" smooth="yes"/>
      <point x="1512" y="-635"/>
      <point x="1533" y="-483"/>
      <point x="1533" y="-294" type="curve" smooth="yes"/>
      <point x="1533" y="-284"/>
      <point x="1540" y="-275"/>
      <point x="1551" y="-275" type="curve" smooth="yes"/>
      <point x="1591" y="-275" type="line" smooth="yes"/>
      <point x="1600" y="-275"/>
      <point x="1606" y="-284"/>
      <point x="1608" y="-294" type="curve" smooth="yes"/>
      <point x="1658" y="-544"/>
      <point x="1600" y="-740"/>
      <point x="1373" y="-740" type="curve" smooth="yes"/>
      <point x="1175" y="-740"/>
      <point x="1108" y="-604"/>
      <point x="1108" y="-250" type="curve" smooth="yes"/>
      <point x="1108" y="430" type="line" smooth="yes"/>
      <point x="1108.49" y="691.952"/>
      <point x="1050.32" y="805"/>
      <point x="920" y="805" type="curve" smooth="yes"/>
      <point x="809" y="805"/>
      <point x="718" y="688"/>
      <point x="718" y="550" type="curve" smooth="yes"/>
      <point x="718" y="540"/>
      <point x="710" y="530"/>
      <point x="701" y="530" type="curve" smooth="yes"/>
      <point x="651" y="530" type="line" smooth="yes"/>
      <point x="640" y="530"/>
      <point x="633" y="540"/>
      <point x="633" y="550" type="curve" smooth="yes"/>
      <point x="633" y="718"/>
      <point x="717" y="930"/>
      <point x="920" y="930" type="curve" smooth="yes"/>
      <point x="1140.69" y="930"/>
      <point x="1229.33" y="779"/>
    </contour>
  </outline>
</glyph>
<glyph name="uni19DE" format="1">
  <advance width="1894"/>
  <unicode hex="19DE"/>
  <outline>
    <contour>
      <point x="1117" y="105" type="curve" smooth="yes"/>
      <point x="1374" y="105"/>
      <point x="1368" y="485"/>
      <point x="1329" y="830" type="curve" smooth="yes"/>
      <point x="1275" y="1310"/>
      <point x="1307" y="1650"/>
      <point x="1584" y="1650" type="curve" smooth="yes"/>
      <point x="1811" y="1650"/>
      <point x="1859" y="1460"/>
      <point x="1809" y="1230" type="curve" smooth="yes"/>
      <point x="1807" y="1220"/>
      <point x="1801" y="1210"/>
      <point x="1792" y="1210" type="curve" smooth="yes"/>
      <point x="1752" y="1211" type="line" smooth="yes"/>
      <point x="1741" y="1211"/>
      <point x="1734" y="1220"/>
      <point x="1734" y="1230" type="curve" smooth="yes"/>
      <point x="1734" y="1389"/>
      <point x="1723" y="1555"/>
      <point x="1584" y="1555" type="curve" smooth="yes"/>
      <point x="1418" y="1555"/>
      <point x="1405" y="1244"/>
      <point x="1454" y="830" type="curve" smooth="yes"/>
      <point x="1506" y="386"/>
      <point x="1467" y="-20"/>
      <point x="1117" y="-20" type="curve" smooth="yes"/>
      <point x="849" y="-20"/>
      <point x="819.576" y="180.352"/>
      <point x="765" y="455" type="curve" smooth="yes"/>
      <point x="721.482" y="674"/>
      <point x="671" y="805"/>
      <point x="502" y="805" type="curve" smooth="yes"/>
      <point x="306" y="805"/>
      <point x="235" y="610"/>
      <point x="235" y="420" type="curve" smooth="yes"/>
      <point x="235" y="230"/>
      <point x="305" y="105"/>
      <point x="465" y="105" type="curve" smooth="yes"/>
      <point x="476" y="105"/>
      <point x="491" y="106"/>
      <point x="500" y="108" type="curve" smooth="yes"/>
      <point x="511" y="110"/>
      <point x="523" y="110"/>
      <point x="527" y="102" type="curve" smooth="yes"/>
      <point x="573" y="23" type="line" smooth="yes"/>
      <point x="578" y="14"/>
      <point x="575" y="2"/>
      <point x="565" y="-2" type="curve" smooth="yes"/>
      <point x="534" y="-15"/>
      <point x="497" y="-20"/>
      <point x="465" y="-20" type="curve" smooth="yes"/>
      <point x="220" y="-19"/>
      <point x="110" y="158"/>
      <point x="110" y="420" type="curve" smooth="yes"/>
      <point x="110" y="672"/>
      <point x="215" y="930"/>
      <point x="502" y="930" type="curve" smooth="yes"/>
      <point x="783" y="930"/>
      <point x="840.482" y="717"/>
      <point x="890" y="455" type="curve" smooth="yes"/>
      <point x="930.763" y="239.323"/>
      <point x="971" y="105"/>
    </contour>
  </outline>
</glyph>
<glyph name="uni25CC" format="1">
  <advance width="1638"/>
  <unicode hex="25CC"/>
  <outline>
    <contour>
      <point x="1208" y="989" type="curve" smooth="yes"/>
      <point x="1200" y="981"/>
      <point x="1190" y="977"/>
      <point x="1177" y="977" type="curve" smooth="yes"/>
      <point x="1164" y="977"/>
      <point x="1154" y="981"/>
      <point x="1145" y="989" type="curve" smooth="yes"/>
      <point x="1136" y="998"/>
      <point x="1132" y="1009"/>
      <point x="1132" y="1022" type="curve" smooth="yes"/>
      <point x="1132" y="1034"/>
      <point x="1136" y="1044"/>
      <point x="1145" y="1053" type="curve" smooth="yes"/>
      <point x="1154" y="1062"/>
      <point x="1164" y="1066"/>
      <point x="1177" y="1066" type="curve" smooth="yes"/>
      <point x="1190" y="1066"/>
      <point x="1200" y="1062"/>
      <point x="1208" y="1053" type="curve" smooth="yes"/>
      <point x="1217" y="1044"/>
      <point x="1222" y="1033"/>
      <point x="1222" y="1022" type="curve" smooth="yes"/>
      <point x="1222" y="1009"/>
      <point x="1217" y="998"/>
    </contour>
    <contour>
      <point x="1053" y="1116" type="curve" smooth="yes"/>
      <point x="1042" y="1092"/>
      <point x="1016" y="1081"/>
      <point x="993" y="1092" type="curve"/>
      <point x="970" y="1100"/>
      <point x="961" y="1126"/>
      <point x="969" y="1149" type="curve"/>
      <point x="980" y="1174"/>
      <point x="1005" y="1185"/>
      <point x="1028" y="1174" type="curve"/>
      <point x="1051" y="1165"/>
      <point x="1064" y="1139"/>
    </contour>
    <contour>
      <point x="1329" y="872" type="curve"/>
      <point x="1340" y="849"/>
      <point x="1329" y="824"/>
      <point x="1305" y="813" type="curve"/>
      <point x="1282" y="805"/>
      <point x="1255" y="815"/>
      <point x="1247" y="838" type="curve"/>
      <point x="1236" y="861"/>
      <point x="1247" y="886"/>
      <point x="1272" y="897" type="curve" smooth="yes"/>
      <point x="1295" y="908"/>
      <point x="1321" y="895"/>
    </contour>
    <contour>
      <point x="860" y="1171" type="curve" smooth="yes"/>
      <point x="860" y="1147"/>
      <point x="840" y="1126"/>
      <point x="815" y="1126" type="curve" smooth="yes"/>
      <point x="791" y="1126"/>
      <point x="770" y="1147"/>
      <point x="770" y="1171" type="curve" smooth="yes"/>
      <point x="770" y="1196"/>
      <point x="791" y="1217"/>
      <point x="815" y="1217" type="curve" smooth="yes"/>
      <point x="840" y="1217"/>
      <point x="860" y="1196"/>
    </contour>
    <contour>
      <point x="1372" y="659" type="curve" smooth="yes"/>
      <point x="1372" y="635"/>
      <point x="1352" y="614"/>
      <point x="1327" y="614" type="curve" smooth="yes"/>
      <point x="1303" y="614"/>
      <point x="1282" y="635"/>
      <point x="1282" y="659" type="curve" smooth="yes"/>
      <point x="1282" y="684"/>
      <point x="1303" y="705"/>
      <point x="1327" y="705" type="curve" smooth="yes"/>
      <point x="1352" y="705"/>
      <point x="1372" y="684"/>
    </contour>
    <contour>
      <point x="662" y="1149" type="curve"/>
      <point x="670" y="1126"/>
      <point x="660" y="1100"/>
      <point x="637" y="1092" type="curve"/>
      <point x="614" y="1081"/>
      <point x="589" y="1092"/>
      <point x="578" y="1116" type="curve" smooth="yes"/>
      <point x="567" y="1139"/>
      <point x="579" y="1165"/>
      <point x="602" y="1174" type="curve"/>
      <point x="625" y="1185"/>
      <point x="651" y="1174"/>
    </contour>
    <contour>
      <point x="1329" y="446" type="curve"/>
      <point x="1321" y="423"/>
      <point x="1295" y="411"/>
      <point x="1272" y="422" type="curve" smooth="yes"/>
      <point x="1247" y="433"/>
      <point x="1236" y="458"/>
      <point x="1247" y="481" type="curve"/>
      <point x="1255" y="504"/>
      <point x="1282" y="514"/>
      <point x="1305" y="506" type="curve"/>
      <point x="1329" y="495"/>
      <point x="1340" y="469"/>
    </contour>
    <contour>
      <point x="485" y="989" type="curve"/>
      <point x="476" y="981"/>
      <point x="465" y="977"/>
      <point x="453" y="977" type="curve" smooth="yes"/>
      <point x="440" y="977"/>
      <point x="430" y="981"/>
      <point x="422" y="989" type="curve" smooth="yes"/>
      <point x="413" y="998"/>
      <point x="408" y="1009"/>
      <point x="408" y="1022" type="curve" smooth="yes"/>
      <point x="408" y="1034"/>
      <point x="413" y="1044"/>
      <point x="422" y="1053" type="curve" smooth="yes"/>
      <point x="430" y="1062"/>
      <point x="440" y="1066"/>
      <point x="453" y="1066" type="curve" smooth="yes"/>
      <point x="466" y="1066"/>
      <point x="476" y="1062"/>
      <point x="485" y="1053" type="curve" smooth="yes"/>
      <point x="494" y="1043"/>
      <point x="498" y="1033"/>
      <point x="498" y="1022" type="curve" smooth="yes"/>
      <point x="498" y="1010"/>
      <point x="494" y="999"/>
    </contour>
    <contour>
      <point x="1208" y="266" type="curve"/>
      <point x="1200" y="257"/>
      <point x="1190" y="252"/>
      <point x="1177" y="252" type="curve" smooth="yes"/>
      <point x="1165" y="252"/>
      <point x="1154" y="257"/>
      <point x="1145" y="266" type="curve" smooth="yes"/>
      <point x="1136" y="274"/>
      <point x="1132" y="284"/>
      <point x="1132" y="297" type="curve" smooth="yes"/>
      <point x="1132" y="310"/>
      <point x="1136" y="321"/>
      <point x="1145" y="330" type="curve" smooth="yes"/>
      <point x="1154" y="338"/>
      <point x="1164" y="342"/>
      <point x="1177" y="342" type="curve" smooth="yes"/>
      <point x="1190" y="342"/>
      <point x="1200" y="338"/>
      <point x="1208" y="330" type="curve"/>
      <point x="1217" y="319"/>
      <point x="1222" y="308"/>
      <point x="1222" y="297" type="curve" smooth="yes"/>
      <point x="1222" y="284"/>
      <point x="1217" y="274"/>
    </contour>
    <contour>
      <point x="383" y="838" type="curve"/>
      <point x="375" y="815"/>
      <point x="349" y="805"/>
      <point x="326" y="813" type="curve"/>
      <point x="301" y="824"/>
      <point x="290" y="849"/>
      <point x="301" y="872" type="curve"/>
      <point x="309" y="895"/>
      <point x="335" y="908"/>
      <point x="358" y="897" type="curve" smooth="yes"/>
      <point x="383" y="886"/>
      <point x="394" y="861"/>
    </contour>
    <contour>
      <point x="1053" y="203" type="curve" smooth="yes"/>
      <point x="1064" y="180"/>
      <point x="1051" y="154"/>
      <point x="1028" y="145" type="curve"/>
      <point x="1005" y="134"/>
      <point x="980" y="145"/>
      <point x="969" y="170" type="curve"/>
      <point x="961" y="193"/>
      <point x="970" y="219"/>
      <point x="993" y="227" type="curve"/>
      <point x="1016" y="238"/>
      <point x="1042" y="227"/>
    </contour>
    <contour>
      <point x="348" y="659" type="curve" smooth="yes"/>
      <point x="348" y="635"/>
      <point x="328" y="614"/>
      <point x="303" y="614" type="curve" smooth="yes"/>
      <point x="279" y="614"/>
      <point x="258" y="635"/>
      <point x="258" y="659" type="curve" smooth="yes"/>
      <point x="258" y="684"/>
      <point x="279" y="705"/>
      <point x="303" y="705" type="curve" smooth="yes"/>
      <point x="328" y="705"/>
      <point x="348" y="684"/>
    </contour>
    <contour>
      <point x="860" y="147" type="curve" smooth="yes"/>
      <point x="860" y="123"/>
      <point x="840" y="102"/>
      <point x="815" y="102" type="curve" smooth="yes"/>
      <point x="791" y="102"/>
      <point x="770" y="123"/>
      <point x="770" y="147" type="curve" smooth="yes"/>
      <point x="770" y="172"/>
      <point x="791" y="193"/>
      <point x="815" y="193" type="curve" smooth="yes"/>
      <point x="840" y="193"/>
      <point x="860" y="172"/>
    </contour>
    <contour>
      <point x="383" y="481" type="curve"/>
      <point x="394" y="458"/>
      <point x="383" y="433"/>
      <point x="358" y="422" type="curve" smooth="yes"/>
      <point x="335" y="411"/>
      <point x="309" y="423"/>
      <point x="301" y="446" type="curve"/>
      <point x="290" y="469"/>
      <point x="301" y="495"/>
      <point x="326" y="506" type="curve"/>
      <point x="349" y="514"/>
      <point x="375" y="504"/>
    </contour>
    <contour>
      <point x="662" y="170" type="curve"/>
      <point x="651" y="145"/>
      <point x="625" y="134"/>
      <point x="602" y="145" type="curve"/>
      <point x="579" y="154"/>
      <point x="567" y="180"/>
      <point x="578" y="203" type="curve" smooth="yes"/>
      <point x="589" y="227"/>
      <point x="614" y="238"/>
      <point x="637" y="227" type="curve"/>
      <point x="660" y="219"/>
      <point x="670" y="193"/>
    </contour>
    <contour>
      <point x="485" y="266" type="curve" smooth="yes"/>
      <point x="476" y="257"/>
      <point x="465" y="252"/>
      <point x="453" y="252" type="curve" smooth="yes"/>
      <point x="440" y="252"/>
      <point x="430" y="257"/>
      <point x="422" y="266" type="curve"/>
      <point x="413" y="273"/>
      <point x="408" y="284"/>
      <point x="408" y="297" type="curve" smooth="yes"/>
      <point x="408" y="310"/>
      <point x="413" y="321"/>
      <point x="422" y="330" type="curve" smooth="yes"/>
      <point x="430" y="338"/>
      <point x="440" y="342"/>
      <point x="453" y="342" type="curve" smooth="yes"/>
      <point x="465" y="342"/>
      <point x="476" y="338"/>
      <point x="485" y="330" type="curve"/>
      <point x="494" y="319"/>
      <point x="498" y="308"/>
      <point x="498" y="297" type="curve" smooth="yes"/>
      <point x="498" y="285"/>
      <point x="494" y="275"/>
    </contour>
  </outline>
</glyph>
<glyph name="dailuemodifierw" format="1">
  <advance width="0"/>
  <outline>
    <contour>
      <point x="-950" y="-485" type="curve" smooth="yes"/>
      <point x="-950" y="-570"/>
      <point x="-850" y="-595"/>
      <point x="-754" y="-595" type="curve" smooth="yes"/>
      <point x="-498" y="-595"/>
      <point x="-234" y="-430"/>
      <point x="-234" y="-325" type="curve" smooth="yes"/>
      <point x="-234" y="-250"/>
      <point x="-308" y="-210"/>
      <point x="-444" y="-210" type="curve" smooth="yes"/>
      <point x="-700" y="-210"/>
      <point x="-950" y="-370"/>
    </contour>
    <contour>
      <point x="-1064" y="-495" type="curve" smooth="yes"/>
      <point x="-1064" y="-300"/>
      <point x="-738" y="-105"/>
      <point x="-424" y="-105" type="curve" smooth="yes"/>
      <point x="-230" y="-105"/>
      <point x="-120" y="-180"/>
      <point x="-120" y="-315" type="curve" smooth="yes"/>
      <point x="-120" y="-508"/>
      <point x="-460" y="-700"/>
      <point x="-774" y="-700" type="curve" smooth="yes"/>
      <point x="-928" y="-700"/>
      <point x="-1064" y="-638"/>
    </contour>
  </outline>
</glyph>
